<svg version="1.0" xmlns="http://www.w3.org/2000/svg"
  width="140pt"
  height="130" viewBox="0 0 300.000000 300.000000" preserveAspectRatio="xMidYMid meet">
  <g transform="translate(0.000000,300.000000) scale(0.100000,-0.100000)" fill="#ffffff"
    stroke="none">
    <path
      d="M463 1579 c-17 -5 -43 -23 -57 -40 -24 -28 -26 -38 -26 -129 l0 -98 -40 -32 c-22 -17 -40 -40 -40 -50 0 -10 17 -32 38 -49 l37 -31 5 -106 c5 -104 6 -106 38 -135 23 -20 43 -29 67 -29 34 0 35 1 35 39 0 36 -3 40 -27 43 l-28 3 -5 100 c-5 103 -10 120 -43 144 -18 13 -18 14 1 35 35 38 42 64 42 156 l0 92 30 11 c26 10 30 16 30 49 0 41 -4 42 -57 27z" />
    <path
      d="M636 1578 c-10 -31 -1 -71 18 -74 33 -5 39 -21 37 -93 -2 -83 11 -141 39 -166 20 -18 20 -19 2 -39 -33 -37 -37 -49 -42 -146 -5 -90 -6 -94 -30 -100 -20 -5 -26 -13 -28 -43 -3 -37 -3 -37 33 -37 29 0 45 8 71 34 34 34 34 34 34 130 l0 95 40 37 c22 21 40 45 40 55 0 10 -18 33 -40 50 l-40 32 0 98 c0 90 -2 100 -25 128 -14 16 -36 33 -48 36 -12 4 -30 9 -40 11 -9 3 -19 -1 -21 -8z" />
    <path
      d="M1905 1570 c-3 -5 -25 -118 -25 -129 0 -2 -9 5 -20 17 -39 41 -119 21 -154 -40 -10 -16 -20 -52 -23 -81 -4 -43 -1 -57 17 -79 26 -33 81 -38 120 -11 22 16 23 16 17 0 -5 -14 0 -17 28 -17 26 0 35 4 35 17 0 10 14 83 31 163 17 80 32 149 32 154 2 9 -52 15 -58 6z m-55 -155 c17 -20 7 -91 -16 -116 -24 -26 -70 -25 -85 2 -33 63 58 166 101 114z" />
    <path
      d="M1194 1542 c-65 -31 -104 -102 -104 -188 0 -88 39 -124 134 -124 44 0 60 5 85 26 18 14 36 35 42 45 8 16 5 21 -15 30 -23 11 -28 8 -55 -20 -35 -38 -80 -42 -112 -10 -18 18 -21 29 -16 70 11 90 45 130 115 132 24 1 40 -5 52 -21 16 -19 22 -21 44 -11 32 15 32 21 3 55 -32 36 -113 44 -173 16z" />
    <path
      d="M1471 1462 c-70 -38 -97 -157 -46 -207 29 -30 98 -34 146 -9 36 18 68 83 69 137 0 82 -88 122 -169 79z m99 -47 c15 -19 7 -77 -15 -112 -13 -20 -23 -24 -53 -21 -32 3 -37 7 -40 32 -5 40 5 73 28 96 24 24 63 26 80 5z" />
    <path
      d="M2051 1462 c-70 -38 -97 -157 -46 -207 35 -36 111 -35 155 1 31 26 31 27 10 41 -19 13 -23 13 -40 -2 -27 -25 -84 -17 -88 13 -3 20 1 22 43 22 58 0 99 21 114 59 31 73 -63 119 -148 73z m95 -44 c11 -18 -34 -48 -72 -48 -40 0 -42 6 -12 37 23 25 72 31 84 11z" />
    <path
      d="M2261 1369 c-13 -61 -25 -117 -28 -125 -4 -10 4 -14 30 -14 34 0 35 1 41 52 8 58 31 118 49 130 7 4 24 8 38 8 17 0 29 8 37 24 6 13 8 27 5 30 -13 13 -54 5 -73 -14 -11 -11 -22 -20 -24 -20 -2 0 -2 9 1 20 4 17 0 20 -24 20 l-30 0 -22 -111z" />
    <path
      d="M2495 1469 c-30 -18 -45 -40 -45 -70 0 -31 14 -44 66 -63 44 -15 55 -39 24 -56 -23 -12 -52 -6 -75 16 -13 13 -17 13 -37 -6 l-23 -21 25 -19 c35 -27 118 -27 153 0 53 42 39 112 -25 125 -42 9 -58 22 -51 41 6 17 64 19 81 2 9 -9 16 -7 32 7 18 16 19 20 6 33 -19 19 -105 26 -131 11z" />
    <path
      d="M1396 1019 c-9 -39 -16 -75 -16 -79 0 -4 20 -8 45 -8 44 -2 47 -1 61 34 14 32 13 38 -1 60 -18 27 -19 28 -47 13 -19 -10 -19 -9 -13 20 4 18 3 31 -3 31 -5 0 -17 -32 -26 -71z m73 -3 c23 -27 -21 -88 -50 -70 -16 9 -10 62 9 73 23 14 28 13 41 -3z" />
    <path
      d="M1125 1068 c-5 -18 -25 -117 -25 -128 0 -25 19 -6 24 25 7 33 9 35 46 35 l39 0 -10 -32 c-9 -33 -5 -48 10 -32 7 8 31 112 31 136 0 21 -18 5 -23 -22 -6 -27 -10 -30 -43 -30 -35 0 -36 1 -30 30 5 29 -10 44 -19 18z" />
    <path
      d="M1271 1027 c-6 -16 -11 -44 -11 -63 0 -33 1 -34 39 -34 43 0 46 4 57 75 4 31 3 46 -3 42 -6 -4 -13 -25 -17 -46 -4 -24 -14 -44 -25 -50 -28 -15 -41 4 -29 46 12 44 4 67 -11 30z" />
  </g>
</svg>
